<?xml version="1.0" encoding="utf-8"?>
<!-- Generator: Adobe Illustrator 27.0.0, SVG Export Plug-In . SVG Version: 6.00 Build 0)  -->
<svg version="1.1" id="Layer_1" xmlns="http://www.w3.org/2000/svg" xmlns:xlink="http://www.w3.org/1999/xlink" x="0px" y="0px"
	 viewBox="0 0 417 417" style="enable-background:new 0 0 417 417;" xml:space="preserve">
<style type="text/css">
	.st0{fill:#FFFFFF;}
</style>
<g>
	<path class="st0" d="M401.5,228.8c0,2.2,0,4.5,0,6.8c-2.6,3.6-4.9,7.4-7.9,10.7c-4.1,4.6-8.6,8.7-12.9,13c-7,6.9-12.1,7.8-20.9,3.5
		c-8.2-4-16.3-8-24.4-12c-12.2,11.2-14,9.8-23.4,11.2c-1.3,5.3-2.6,10.4-3.9,15.9c5.1,2.5,10.6,5.2,16.1,8
		c11.3,5.7,13.2,16.8,4.3,25.7c-5.3,5.3-10.6,10.6-15.9,15.9c-6.2,6.2-11.8,7.1-19.7,3.2c-7.4-3.6-14.8-7.2-22.1-11
		c-2.2-1.1-3.5-0.8-5.5,0.8c-3.6,2.9-7.7,5.5-11.9,7.4c-2.8,1.3-6.3,1.3-8.9,1.7c-1.3,5.4-2.6,10.5-3.9,15.8
		c5.1,2.5,10.5,5.2,15.9,7.9c11.6,5.8,13.4,16.8,4.4,25.9c-4.6,4.6-9,9.4-13.9,13.7c-3.4,3-7.5,5.2-11.2,7.7c-1.5,0-3,0-4.5,0
		c-9.2-4.4-18.5-8.7-27.6-13.2c-2.5-1.2-4-1.2-6.1,0.9c-8.9,9-19.5,11.3-30.8,5.6c-13-6.5-25.9-13.5-38.3-21.1
		c-8-4.8-15.2-10.9-22.6-16.7c-3.6-2.8-3.9-7.4-1.2-10.7c2.6-3.1,6.9-3.5,10.4-1c0.9,0.6,1.8,1.4,2.6,2.1
		c16.9,13.5,34.8,25.1,54.7,33.7c6.1,2.6,10,2,14.6-2.6c12.6-12.5,25.1-25,37.6-37.7c1.5-1.5,2.8-3.6,3.5-5.6
		c1.8-5.7-0.7-10.6-6.8-13.8c-24.3-12.6-45.9-28.7-65.6-47.5c-23.7-22.6-43.7-48-58.8-77.1c-3.9-7.4-12.4-9.2-18.2-3.6
		c-13.3,13-26.4,26.2-39.5,39.5c-3.5,3.5-4,7.9-2.1,12.5c1.2,3,2.6,5.9,4,8.9c8.6,17.7,19.6,33.9,31.9,49.2c3.2,4,2.9,8.5-0.6,11.3
		c-3.4,2.7-7.9,2-11.1-2c-15-18.4-27.9-38.1-37.3-59.9c-5.3-12.2-3.6-22.4,5.8-31.8c1.7-1.7,1.9-3,0.8-5.1
		c-4.5-9-8.8-18.1-13.2-27.2c0-2,0-4,0-6c2.5-3.7,4.7-7.6,7.6-10.9c4.1-4.7,8.7-8.9,13.2-13.3c9.1-9,20.8-7.1,26.5,4.3
		c2.7,5.3,5.3,10.7,7.7,15.6c5.6-1.4,10.9-2.7,16.3-4c-0.4-8.4,2.9-15.5,9.2-21.3c1.5-1.4,1.4-2.6,0.6-4.2
		c-3.9-7.7-7.7-15.4-11.4-23.2c-3.5-7.3-2.5-13.4,3.2-19.1c5-5.1,10-10.1,15.1-15.1c9.6-9.5,21.1-7.7,27.1,4.3
		c2.6,5.2,5.2,10.4,7.5,15.1c5.6-1.4,10.8-2.6,16.3-3.9c-0.4-8.4,3.1-15.7,9.5-21.8c0.7-0.7,0.7-2.8,0.2-3.8
		c-3.5-7.4-7.2-14.8-10.9-22.2c-4.1-8.3-3.1-14.2,3.4-20.7c4-4.1,7.9-8.4,12.2-12.1c3.7-3.2,7.9-5.7,11.9-8.6c1.8,0,3.5,0,5.2,0
		c6.6,1.9,10.7,6.3,13.3,12.6c2,4.7,4.4,9.1,6.6,13.6c17.3-7.6,30.2-3,38.8,13.3c16.7,31.7,39.4,58.5,66.4,81.8
		c15.7,13.5,32.6,25.2,51,34.6c8.8,4.5,14.1,11.7,14.5,21.6c0.2,5.3-1.5,10.6-2.4,16.5c3.6,1.8,8,4.2,12.6,6.2
		C394.4,219.1,399.2,222.6,401.5,228.8z M152.4,121.5c-1.3,0.7-4.3,1.5-6.2,3.3c-13.2,12.9-26.3,26-39.3,39.2
		c-3.6,3.7-4.2,8.1-2.2,12.8c1.7,3.9,3.4,7.8,5.3,11.5c18.5,35.9,44.4,65.7,75.6,90.9c16.7,13.5,34.7,24.8,54.4,33.4
		c5.1,2.2,9.8,1.9,13.8-2.1c13-12.9,26.1-25.9,38.9-39c5.5-5.6,4.2-13.9-2.5-17.9c-1-0.6-2-1.1-2.9-1.6
		c-36.9-19.7-67.8-46.6-93.8-79.2c-11-13.7-20.6-28.2-28.6-43.8C162.7,124.5,159.3,121.6,152.4,121.5z M219.9,53.9
		c-1.6,1-4.9,2.2-7.3,4.5c-12.3,11.9-24.3,24.1-36.4,36.2c-5.6,5.6-6.3,9.3-3.1,16.5c11.3,25.5,27.1,48,45.9,68.5
		c25.2,27.4,53.9,50.1,88.2,65.3c6.7,2.9,10.4,2.2,15.5-2.9c12.2-12.2,24.4-24.4,36.6-36.6c7.1-7.1,5.8-15.5-3.1-20.1
		c-34.1-17.8-63-42.2-88-71.2c-14.1-16.3-26.3-34-36.1-53.2C229.9,56.5,226.5,54.2,219.9,53.9z M318.8,299.9
		c-4.3-2.2-8.1-4.1-11.9-5.9c-3.4-1.6-7-4.7-10.1-4.2c-3.1,0.5-5.5,4.6-8.2,7.2c-3.2,3.2-6.4,6.4-9.9,9.9c7.1,3.5,13.6,6.7,20.1,9.8
		c0.9,0.4,2.7,0.1,3.4-0.5C307.8,311,313.1,305.7,318.8,299.9z M251.3,367.4c-4.1-2-7.7-3.8-11.2-5.5c-3.6-1.7-7.5-5-10.7-4.5
		c-3.3,0.6-5.9,5-8.7,7.7c-3.1,3-6.1,6-9.3,9.3c7.1,3.5,13.6,6.8,20.1,9.8c0.9,0.4,2.7,0.1,3.4-0.6
		C240.3,378.5,245.6,373.2,251.3,367.4z M178.4,71.4c5.5-5.5,10.5-10.7,15.7-15.7c1.7-1.7,2.1-3,0.8-5.1c-1.3-2.2-2.3-4.7-3.5-7
		c-2-3.9-3.9-7.9-6.1-12.3c-5.8,5.8-11.2,11.2-16.4,16.7c-0.6,0.6-0.8,2.3-0.4,3.1C171.6,57.8,174.9,64.3,178.4,71.4z M346.4,239.4
		c7.3,3.6,14,7,20.8,10.2c0.5,0.3,1.6,0.2,2-0.2c5.7-5.5,11.3-11.1,17.2-17c-7.2-3.5-13.7-6.8-20.3-10c-0.8-0.4-2.3-0.2-2.9,0.4
		C357.6,228.1,352.2,233.6,346.4,239.4z M100.1,117.2c3.4,6.9,6.9,14.1,10.7,21.7c5.8-5.8,11.2-11.2,16.6-16.8
		c0.5-0.5,0.9-1.7,0.7-2.2c-3.3-6.9-6.7-13.8-10.1-20.6C112,105.4,106.2,111.2,100.1,117.2z M50.3,166.3
		c-5.8,5.9-11.2,11.2-16.5,16.7c-0.5,0.6-1,1.9-0.7,2.5c3.3,6.9,6.7,13.7,10,20.5C49.1,199.8,55,194,61,188
		C57.6,181.2,54.1,174.1,50.3,166.3z"/>
	<path class="st0" d="M95.6,329.9c0,4.2-3.4,7.6-7.6,7.5c-3.9-0.1-7.3-3.5-7.4-7.5c0-4.1,3.5-7.5,7.7-7.5
		C92.4,322.6,95.6,325.8,95.6,329.9z"/>
	<path class="st0" d="M303.1,191.3c-1.3-0.5-3-1.1-4.7-2c-20.8-11.1-38.2-26.3-53.1-44.4c-3.1-3.8-2.8-8.2,0.5-11
		c3.5-2.9,7.8-2.4,11.2,1.6c13,15.6,27.9,28.9,45.6,39c1.8,1,3.8,1.9,5.5,3.1c2.9,2.2,3.8,5.2,2.5,8.7
		C309.5,189.5,306.9,190.9,303.1,191.3z"/>
	<path class="st0" d="M226.7,114c0-4.1,3.2-7.4,7.3-7.5c4,0,7.5,3.3,7.6,7.3c0.1,4.1-3.5,7.7-7.6,7.7
		C229.9,121.4,226.7,118.1,226.7,114z"/>
</g>
</svg>
