<?xml version="1.0" encoding="utf-8"?>
<!-- Generator: Adobe Illustrator 27.0.0, SVG Export Plug-In . SVG Version: 6.00 Build 0)  -->
<svg version="1.1" id="Layer_1" xmlns="http://www.w3.org/2000/svg" xmlns:xlink="http://www.w3.org/1999/xlink" x="0px" y="0px"
	 viewBox="0 0 417 417" style="enable-background:new 0 0 417 417;" xml:space="preserve">
<style type="text/css">
	.st0{fill:#FFFFFF;}
</style>
<g>
	<path class="st0" d="M398.8,182.9c-20.3-29-46.1-51.6-78.2-67c-19.7-9.4-40.5-15.2-62.1-18c-1.4-0.2-3.1-0.9-4-2
		c-7.4-8.2-16.2-14.5-25.9-19.7c-20.9-11.3-43.3-18.3-66.4-23c-15.1-3.1-30.3-5.4-45.5-7.8c-7.6-1.2-12.2,4.6-9.9,11.9
		c0.4,1.1,0.8,2.2,1.2,3.4c6.9,20.2,13.8,40.5,20.8,60.6c1.1,3.1,0.1,4.2-2.6,5.7c-13.6,7.3-27,14.9-40.4,22.4
		c-0.5,0.3-1.1,0.5-0.9,0.4c-6.1-6.1-11.3-12.4-17.5-17.5c-15.7-12.6-34.3-17.7-54.1-18.8c-5.7-0.3-9.6,3.4-9.5,9.4
		c0.6,31,6.1,60.3,28.3,84.1c0,0.1,0,0.3-0.1,0.4c-1.3,1.5-2.7,3-3.9,4.5c-19.2,23.6-24,51.6-24.1,80.8c0,5,3.9,8.4,9.1,8.1
		c21.6-1.2,41.7-7.1,58.1-21.9c4.9-4.4,8.9-9.7,13.5-14.7c19.8,13.5,41.6,23.7,63.9,33c-1.3,3.2-2.7,6.1-3.7,9.1
		c-3.9,11.5-4.5,23.4-4.7,35.4c-0.1,7.2,3.3,10.8,10.5,10.2c8.9-0.7,17.8-1.6,26.5-3.2c22.5-4.2,43.1-12.3,59.3-29.4
		c0.9-1,2.7-1.4,4.2-1.6c9.6-1.1,19.4-1.5,28.9-3.2c49.6-8.6,89.8-33.1,121-72.4c8.1-10.1,14.6-21.4,21.9-32.2c0-1.6,0-3.2,0-4.8
		C408,197.5,403.8,189.9,398.8,182.9z M127.8,63.9c35.3,5.9,69.7,13,100.5,32.1c-28.7,2.5-55.6,11.5-82.2,22.1
		C140,100,134,82.3,127.8,63.9z M157.3,334.2c0.8-9.9,1.2-19.4,6-27.9c0.7-1.2,2.7-2.6,3.7-2.4c15.3,4.1,30.5,8.5,45.8,12.9
		C196.4,327.6,177.5,332.1,157.3,334.2z M270.1,297.2c-30.6,6.3-60.5,3.3-90-6.7c-28.4-9.7-55.8-21.4-81.2-37.5
		c-3.6-2.3-7-4.9-10.2-7.6c-6.6-5.5-12.3-4.6-15.9,3.3c-9.1,20.1-32.3,32.2-51.6,33.7c0.3-11.9,2.2-23.5,6.1-34.8
		C32,234,38.9,222,51.2,213.7c4.8-3.2,5-10,0.3-13.3c-18.3-12.7-25-31.7-28.6-52.3c-1-5.4-1.3-11-2-17.1
		c22.1,4.1,40.3,12.5,51.1,32.6c0.8,1.5,1.5,3.2,2.4,4.6c2.7,4.1,8.1,5.3,11.9,2.2c23.7-19.4,51.6-31,79.7-42
		c16.9-6.6,34.2-11.6,52.2-13.9c19.6-2.6,39-0.9,58.2,3.7c52.1,12.3,90.3,43.3,117.9,88.7C365.3,254.7,324.9,285.8,270.1,297.2z"/>
	<path class="st0" d="M275,143.4c1.4-3.3,2.1-6.8-0.6-9.3c-2-1.9-5.5-3.6-7.9-3.2c-2.6,0.5-5.6,3.1-7,5.5
		c-12.4,21.8-16.9,45.7-17.4,74c0.4,4.5,0.9,12.6,2,20.7c2.3,16.6,7,32.4,15.6,46.9c1.2,2,3.3,3.9,5.4,4.9c3.3,1.5,6.5,0.3,8.9-2.4
		c2.6-3,2.6-6.5,0.2-11.1c-17.2-32.9-18.9-67.3-9.1-102.6C267.5,158.7,271.6,151.1,275,143.4z"/>
	<path class="st0" d="M232.5,130.9c-2.5,0.4-5.4,2.9-6.8,5.2C213,158,208.7,182,208,211c0.7,5.9,1.4,15.8,3.2,25.6
		c1.5,8.1,4,16,6.4,23.8c1.5,4.9,5.9,7,10.4,5.8c4.3-1.2,6.7-5.5,5.7-10.4c-0.5-2.2-1.3-4.3-2-6.5c-8.3-27.4-8.7-55-0.5-82.5
		c2.4-7.9,6.2-15.5,9.6-23.1c1.5-3.4,2.3-7.1-0.4-9.7C238.4,132.1,234.9,130.5,232.5,130.9z"/>
	<path class="st0" d="M310.5,164.4c-9.3-0.1-17,7.5-17,16.9c-0.1,9.4,7.5,17.1,16.8,17.1c9.3,0.1,17-7.5,17-16.9
		C327.3,172.1,319.9,164.5,310.5,164.4z"/>
</g>
</svg>
