<?xml version="1.0" encoding="utf-8"?>
<!-- Generator: Adobe Illustrator 27.0.0, SVG Export Plug-In . SVG Version: 6.00 Build 0)  -->
<svg version="1.1" id="Layer_1" xmlns="http://www.w3.org/2000/svg" xmlns:xlink="http://www.w3.org/1999/xlink" x="0px" y="0px"
	 viewBox="0 0 417 417" style="enable-background:new 0 0 417 417;" xml:space="preserve">
<style type="text/css">
	.st0{fill:#FFFFFF;}
</style>
<g>
	<path class="st0" d="M395.3,167.5c-1.3-9.2-4.1-17.8-8.7-25.9c-9.1-16-22.7-27.3-38.3-36.5c-24.5-14.3-51.4-22.2-79-28
		c-41.7-8.8-84.1-12.2-126.7-12.3c-8.8,0-17.8,1-26.5,2.8C89.3,73.2,67,86.9,49.3,107.7c-16.6,19.6-26.5,42.2-28,67.9
		c-1.1,19.4-0.6,38.8-0.7,58.3c-0.3,29.4,8.3,55.8,26.8,78.8c15.6,19.5,35.5,33,59.5,40.2c26.6,8,53.2,6.7,79.3-2.1
		c16.6-5.6,32.8-12.5,49.2-18.9c18.3-7.2,36.9-12.8,56.6-14.3c9.9-0.8,19.8-0.6,29.6-2.2c32.7-5.4,55.6-23.9,68.2-54.4
		c3.2-7.8,4.3-16.4,6.4-24.7c0-21.8,0-43.5,0-65.3C395.8,169.9,395.5,168.7,395.3,167.5z M358.2,241.3c2.8,2.7,7.2,2.9,10.2-0.1
		c3.1-3.1,5.9-6.5,8.8-9.8c1.2-1.4,2.3-3,4.1-5.3c0.1,12.1-1.7,22.7-6.5,32.6c-12.8,26.4-33.8,42.1-63.2,42.8
		c-34.4,0.9-66.4,9.7-97.6,23.1c-13.3,5.7-27,10.8-41,14.6c-29.5,7.9-58.2,5.4-84.9-10.4c-27.1-16-43.9-39.6-50.6-70.4
		c-0.6-2.9-1-5.8-1.4-8.7c-0.2-1.2-0.2-2.4-0.3-4.4c0.9,1.1,1.4,1.6,1.8,2.3c18.4,29.8,44.5,48.8,78.7,56.5
		c23.5,5.2,46.8,3.2,69.4-4.3c17.3-5.8,34.2-13,51.2-19.7c22.2-8.8,45.1-14.4,69.1-14.5c3,0,6.1-0.3,9.1-0.5
		c4.9-0.3,7.8-3.2,7.7-7.5c-0.1-4.2-3.2-7.2-8.1-7.1c-9.3,0.3-18.6,0.8-27.8,1.6c-26.9,2.4-51.6,12.4-76.1,22.7
		c-15.4,6.4-31.1,12.2-47.6,15.5C109.9,300.8,56,269,40,217.1c-16.6-53.8,12-111.6,64.8-131.1c11.7-4.3,23.8-6.6,36.2-6.6
		c32.4,0.1,64.7,2.1,96.8,7c27.3,4.2,54.3,9.8,80,20.1c17.7,7.1,34.4,15.9,47.4,30.3c17,18.9,19.9,40.6,12.1,64.2
		c-3.5,10.6-9.3,19.8-17.2,27.8c-0.8,0.8-1.5,1.6-2.2,2.5C355.4,234.7,355.5,238.7,358.2,241.3z"/>
	<path class="st0" d="M347.3,140c-15.1-12.2-32.6-19.4-50.8-25.4c-21.1-6.9-42.7-11.1-64.6-14.3c-5.6-0.8-9.6,1.4-10.3,6
		c-0.6,4.2,2.4,7.5,7.7,8.4c24.8,3.8,49.3,8.6,72.8,17.4c13.5,5.1,26.6,11,37.6,20.8c5.7,5.1,10.3,10.9,11.5,18.6
		c2.3,14.7-2.4,27.2-12.9,37.6c-8.9,8.8-19.9,12.4-32.3,12.4c-26.6,0-52.2,5.3-76.9,14.5c-18.3,6.8-36.3,14.4-54.6,21
		c-13.9,5-28.4,6.9-43.3,5c-43.9-5.6-74.7-49.3-65-92.3c8.2-36.3,39.5-61.2,76.9-60.9c8.9,0.1,17.8,0.5,26.8,0.6
		c5.1,0.1,8.4-2.8,8.4-7.2c0.1-4.4-2.9-7.3-8.2-7.4c-6.1-0.1-12.2,0-18.3,0c-29.4-1.1-46.7,3.9-66.4,18.7
		c-35.3,26.5-46,78.2-24.1,116.6c21,36.7,61.3,54.9,104.6,44.4c13.7-3.3,27-8.5,40.1-13.7c21.2-8.4,42.2-17.5,65-21
		c13.6-2.1,27.4-2.7,41.2-3.9c18.4-1.6,33.2-9.7,43.7-24.8C369.8,191.2,373.7,161.3,347.3,140z"/>
	<path class="st0" d="M148.4,123.3c-9.5,0.2-17.9,3.1-25.3,9.2c-14,11.5-15.6,32-3.4,45.3c14.1,15.6,38.8,17,54.8,3.2
		c9.7-8.4,13.6-21.7,9.7-33.2C179.2,132.9,165,123.2,148.4,123.3z M163.4,171.2c-8.3,6.1-20.2,6.4-28.6,0.8
		c-12.3-8.2-11.5-24.2,1.7-30.9c3.6-1.8,7.8-2.6,11.7-3.8c5.9,0.7,11.1,2.3,15.6,5.8C173.6,150.6,173.4,163.9,163.4,171.2z"/>
	<path class="st0" d="M193.8,110.8c4,0,7.3-3.2,7.3-7.2c0.1-4.2-3.1-7.4-7.4-7.4c-4,0-7.3,3.1-7.4,7.1
		C186.2,107.3,189.7,110.8,193.8,110.8z"/>
	<path class="st0" d="M345.4,241.7c-4-0.1-7.5,3.3-7.4,7.4c0.1,4.1,3.2,7.1,7.2,7.1c3.9,0,7.2-3.3,7.3-7.1
		C352.6,245.3,349.2,241.8,345.4,241.7z"/>
</g>
</svg>
